# xmcd CD database file
#
# Track frame offsets:
#	150
#	15134
#	33229
#	47696
#	64671
#	79015
#	99510
#	114771
#	129288
#	145119
#	158929
#	172167
#
# Disc length: 2580 seconds
#
# Revision: 1
# Processed by: cddbd v1.5.1PL2 Copyright (c) Steve Scherf et al.
# Submitted via: CDex 1.50
#
DISCID=890a120c
DTITLE=Variados - Country Collection - Volume 5
DYEAR=1997
DGENRE=Country
TTITLE0=Caryl m. Parker - When I Come To My Senses
TTITLE1=Bob Woodruff - All That I Love Has Worn Away
TTITLE2=Steve McBrian - Cest La Vie
TTITLE3=Al Mighty - Who The Fucks Is Alice
TTITLE4=Michael Pachman - Nobody Wins
TTITLE5=Lucie Grenn - He Ain't Heavy
TTITLE6=Henry Plaier - Reckless
TTITLE7=Joe Nichols - Wal Mart Parking Out
TTITLE8=Peber Redd - Living On A Prayer
TTITLE9=Don Cox - It's My Luck Day
TTITLE10=Filip Mark - No More Troubles
TTITLE11=Bellamy Brothers - Shine Then Buckles
EXTD=YEAR: 1997
EXTT0=
EXTT1=
EXTT2=
EXTT3=
EXTT4=
EXTT5=
EXTT6=
EXTT7=
EXTT8=
EXTT9=
EXTT10=
EXTT11=
PLAYORDER=
